<?xml version="1.0" encoding="UTF-8" standalone="no"?>
<!-- Created with Inkscape (http://www.inkscape.org/) -->

<svg
   xmlns:dc="http://purl.org/dc/elements/1.1/"
   xmlns:cc="http://creativecommons.org/ns#"
   xmlns:rdf="http://www.w3.org/1999/02/22-rdf-syntax-ns#"
   xmlns:svg="http://www.w3.org/2000/svg"
   xmlns="http://www.w3.org/2000/svg"
   xmlns:sodipodi="http://sodipodi.sourceforge.net/DTD/sodipodi-0.dtd"
   xmlns:inkscape="http://www.inkscape.org/namespaces/inkscape"
   id="svg7384"
   sodipodi:docname="range-shutdown.svg"
   version="1.1"
   inkscape:version="0.92.2 (5c3e80d, 2017-08-06)"
   height="16.02426"
   width="16">
  <metadata
     id="metadata90">
    <rdf:RDF>
      <cc:Work
         rdf:about="">
        <dc:format>image/svg+xml</dc:format>
        <dc:type
           rdf:resource="http://purl.org/dc/dcmitype/StillImage" />
        <dc:title>Gnome Symbolic Icon Theme</dc:title>
      </cc:Work>
    </rdf:RDF>
  </metadata>
  <sodipodi:namedview
     inkscape:cy="8.9340676"
     pagecolor="#555753"
     borderopacity="1"
     showborder="false"
     inkscape:bbox-paths="false"
     guidetolerance="10"
     inkscape:window-width="1680"
     showguides="true"
     inkscape:object-nodes="true"
     inkscape:snap-bbox="true"
     inkscape:pageshadow="2"
     inkscape:guide-bbox="true"
     inkscape:snap-nodes="false"
     bordercolor="#666666"
     objecttolerance="10"
     id="namedview88"
     showgrid="false"
     inkscape:window-maximized="1"
     inkscape:window-x="0"
     inkscape:snap-global="true"
     inkscape:window-y="28"
     gridtolerance="10"
     inkscape:window-height="951"
     inkscape:snap-to-guides="true"
     inkscape:current-layer="layer12"
     inkscape:zoom="32"
     inkscape:cx="10.334152"
     inkscape:snap-grids="true"
     inkscape:pageopacity="1">
    <inkscape:grid
       spacingx="1"
       spacingy="1"
       id="grid4866"
       empspacing="2"
       enabled="true"
       type="xygrid"
       snapvisiblegridlinesonly="true"
       visible="true"
       originx="0"
       originy="0" />
  </sodipodi:namedview>
  <title
     id="title9167">Gnome Symbolic Icon Theme</title>
  <defs
     id="defs7386" />
  <g
     inkscape:label="status"
     transform="translate(-100,-685.97574)"
     inkscape:groupmode="layer"
     id="layer9"
     style="display:inline" />
  <g
     inkscape:label="devices"
     transform="translate(-100,-685.97574)"
     inkscape:groupmode="layer"
     id="layer10" />
  <g
     inkscape:label="apps"
     transform="translate(-100,-685.97574)"
     inkscape:groupmode="layer"
     id="layer11" />
  <g
     inkscape:label="actions"
     transform="translate(-100,-685.97574)"
     inkscape:groupmode="layer"
     id="layer12">
    <path
       inkscape:connector-curvature="0"
       d="m 104.84002,687.8125 a 0.99998337,1.0002168 0 0 0 -0.34813,0.13393 c -1.05343,0.60965 -1.93145,1.46598 -2.54405,2.51786 -1.93955,3.33036 -0.81232,7.64928 2.51727,9.58928 3.32959,1.94001 7.64749,0.8125 9.58705,-2.51786 1.93955,-3.33035 0.81232,-7.64927 -2.51727,-9.58928 a 1.0081498,1.0083851 0 1 0 -1.01762,1.74107 c 2.39572,1.39588 3.18978,4.43408 1.79422,6.83036 -1.39555,2.39628 -4.43303,3.19052 -6.82876,1.79464 -2.38544,-1.38989 -3.19179,-4.41207 -1.821,-6.80357 l 0.0268,-0.0268 c 0.43759,-0.75138 1.06851,-1.38594 1.821,-1.82142 a 0.99998337,1.0002168 0 0 0 -0.66949,-1.84822 z"
       id="path3869-2"
       style="font-size:medium;font-style:normal;font-variant:normal;font-weight:normal;font-stretch:normal;text-indent:0;text-align:start;text-decoration:none;line-height:normal;letter-spacing:normal;word-spacing:normal;text-transform:none;direction:ltr;block-progression:tb;writing-mode:lr-tb;text-anchor:start;baseline-shift:baseline;color:#000000;fill:#d40000;fill-opacity:1;stroke:none;stroke-width:2.333606;marker:none;visibility:visible;display:inline;overflow:visible;enable-background:accumulate;font-family:Sans;-inkscape-font-specification:Sans" />
    <path
       inkscape:connector-curvature="0"
       d="M 107.78125,686 A 1.0001,1.0001 0 0 0 107,687 l 0,5 a 1.0001,1.0001 0 1 0 2,0 l 0,-5 a 1.0001,1.0001 0 0 0 -1.21875,-1 z"
       id="path4710"
       style="font-size:medium;font-style:normal;font-variant:normal;font-weight:normal;font-stretch:normal;text-indent:0;text-align:start;text-decoration:none;line-height:normal;letter-spacing:normal;word-spacing:normal;text-transform:none;direction:ltr;block-progression:tb;writing-mode:lr-tb;text-anchor:start;baseline-shift:baseline;color:#000000;fill:#d40000;fill-opacity:1;stroke:none;stroke-width:2;marker:none;visibility:visible;display:inline;overflow:visible;enable-background:accumulate;font-family:Sans;-inkscape-font-specification:Sans" />
    <path
       style="fill:#d40000;stroke-width:0.0625"
       d="M 7.7450095,6.9749325 C 7.4777432,6.888985 7.3083896,6.7592775 7.1653053,6.5309381 7.0295357,6.3142719 7.02823,6.2856969 7.02823,3.5309381 c 0,-2.66884441 0.00505,-2.78982691 0.125,-2.99346689 0.2071227,-0.35163928 0.4266224,-0.47528316 0.84375,-0.47528316 0.4171277,0 0.6366274,0.12364388 0.8437501,0.47528316 0.119948,0.20363998 0.125,0.32462248 0.125,2.99346689 0,2.516121 -0.010282,2.8000381 -0.1078598,2.9783413 C 8.6605218,6.8698925 8.1207302,7.0957569 7.7450095,6.9749325 Z"
       id="path3707"
       inkscape:connector-curvature="0"
       transform="translate(100,685.97574)" />
  </g>
  <g
     inkscape:label="places"
     transform="translate(-100,-685.97574)"
     inkscape:groupmode="layer"
     id="layer13" />
  <g
     inkscape:label="mimetypes"
     transform="translate(-100,-685.97574)"
     inkscape:groupmode="layer"
     id="layer14" />
  <g
     inkscape:label="emblems"
     transform="translate(-100,-685.97574)"
     inkscape:groupmode="layer"
     id="layer15"
     style="display:inline" />
  <g
     inkscape:label="categories"
     transform="translate(-100,-685.97574)"
     inkscape:groupmode="layer"
     id="g4953"
     style="display:inline" />
</svg>
