<?xml version="1.0" encoding="UTF-8" standalone="no"?>
<!-- Created with Inkscape (http://www.inkscape.org/) -->

<svg
   xmlns:osb="http://www.openswatchbook.org/uri/2009/osb"
   xmlns:dc="http://purl.org/dc/elements/1.1/"
   xmlns:cc="http://creativecommons.org/ns#"
   xmlns:rdf="http://www.w3.org/1999/02/22-rdf-syntax-ns#"
   xmlns:svg="http://www.w3.org/2000/svg"
   xmlns="http://www.w3.org/2000/svg"
   xmlns:sodipodi="http://sodipodi.sourceforge.net/DTD/sodipodi-0.dtd"
   xmlns:inkscape="http://www.inkscape.org/namespaces/inkscape"
   width="128px"
   height="128px"
   viewBox="0 0 128 128"
   version="1.1"
   id="SVGRoot"
   inkscape:version="0.92.2 (5c3e80d, 2017-08-06)"
   sodipodi:docname="range-geometry_transform.svg">
  <sodipodi:namedview
     id="base"
     pagecolor="#ffffff"
     bordercolor="#666666"
     borderopacity="1.0"
     inkscape:pageopacity="0.0"
     inkscape:pageshadow="2"
     inkscape:zoom="4"
     inkscape:cx="81.332333"
     inkscape:cy="70.268204"
     inkscape:document-units="px"
     inkscape:current-layer="layer1"
     showgrid="false"
     inkscape:window-width="1680"
     inkscape:window-height="951"
     inkscape:window-x="0"
     inkscape:window-y="28"
     inkscape:window-maximized="1"
     inkscape:grid-bbox="true" />
  <defs
     id="defs815">
    <linearGradient
       id="linearGradient1378"
       osb:paint="solid">
      <stop
         style="stop-color:#000000;stop-opacity:1;"
         offset="0"
         id="stop1376" />
    </linearGradient>
  </defs>
  <metadata
     id="metadata818">
    <rdf:RDF>
      <cc:Work
         rdf:about="">
        <dc:format>image/svg+xml</dc:format>
        <dc:type
           rdf:resource="http://purl.org/dc/dcmitype/StillImage" />
        <dc:title></dc:title>
      </cc:Work>
    </rdf:RDF>
  </metadata>
  <g
     id="layer1"
     inkscape:groupmode="layer"
     inkscape:label="Layer 1">
    <rect
       style="fill:#ffffff;fill-opacity:1;stroke:#000000;stroke-width:3.77952766;stroke-miterlimit:4;stroke-dasharray:none;stroke-opacity:1"
       id="rect1374"
       width="20"
       height="20"
       x="1.8966179"
       y="106.1148" />
    <rect
       style="fill:#ffffff;fill-opacity:1;stroke:#000000;stroke-width:3.77952766;stroke-miterlimit:4;stroke-dasharray:none;stroke-opacity:1"
       id="rect1374-3"
       width="20"
       height="20"
       x="106.10845"
       y="106.11872" />
    <rect
       style="fill:#ffffff;fill-opacity:1;stroke:#000000;stroke-width:3.77952766;stroke-miterlimit:4;stroke-dasharray:none;stroke-opacity:1"
       id="rect1374-6"
       width="20"
       height="20"
       x="33.843147"
       y="32.313709" />
    <rect
       style="fill:#ffffff;fill-opacity:1;stroke:#000000;stroke-width:3.77952766;stroke-miterlimit:4;stroke-dasharray:none;stroke-opacity:1"
       id="rect1374-7"
       width="20"
       height="20"
       x="81.590096"
       y="38.838837" />
    <rect
       style="fill:#ffffff;fill-opacity:1;stroke:#646464;stroke-width:3.77952766;stroke-miterlimit:4;stroke-dasharray:none;stroke-opacity:1;stroke-dashoffset:0;opacity:1"
       id="rect1374-6-5"
       width="20"
       height="20"
       x="1.9116117"
       y="1.9116117" />
    <rect
       style="fill:#ffffff;fill-opacity:1;stroke:#646464;stroke-width:3.77952766;stroke-miterlimit:4;stroke-dasharray:none;stroke-opacity:1;opacity:1"
       id="rect1374-6-3"
       width="20"
       height="20"
       x="106.10792"
       y="1.8937658" />
    <path
       style="fill:none;stroke:#000000;stroke-width:3.77952756;stroke-linecap:butt;stroke-linejoin:miter;stroke-miterlimit:4;stroke-dasharray:none;stroke-opacity:1"
       d="M 16.671849,104.69088 39.317916,52.98763"
       id="path1441"
       inkscape:connector-curvature="0" />
    <path
       style="fill:none;stroke:#000000;stroke-width:3.77952756;stroke-linecap:butt;stroke-linejoin:miter;stroke-opacity:1;stroke-miterlimit:4;stroke-dasharray:none"
       d="m 54.25,43.5 27.5,6.75"
       id="path1443"
       inkscape:connector-curvature="0" />
    <path
       style="fill:none;stroke:#000000;stroke-width:3.77952756;stroke-linecap:butt;stroke-linejoin:miter;stroke-opacity:1;stroke-miterlimit:4;stroke-dasharray:none"
       d="m 95.25,59.25 19.25,46.5"
       id="path1445"
       inkscape:connector-curvature="0" />
    <path
       style="fill:none;stroke:#000000;stroke-width:3.77952756;stroke-linecap:butt;stroke-linejoin:miter;stroke-opacity:1;stroke-miterlimit:4;stroke-dasharray:none"
       d="M 106,117 H 22"
       id="path1447"
       inkscape:connector-curvature="0" />
    <path
       style="fill:none;stroke:#646464;stroke-width:1px;stroke-linecap:butt;stroke-linejoin:miter;stroke-opacity:1"
       d="m 11.25,106 0.5,-84"
       id="path1449"
       inkscape:connector-curvature="0" />
    <path
       style="fill:none;stroke:#646464;stroke-width:1px;stroke-linecap:butt;stroke-linejoin:miter;stroke-opacity:1"
       d="M 22.25,11.25 106,11"
       id="path1451"
       inkscape:connector-curvature="0" />
    <path
       style="fill:none;stroke:#646464;stroke-width:1px;stroke-linecap:butt;stroke-linejoin:miter;stroke-opacity:1"
       d="m 117,22 -0.125,84.125"
       id="path1453"
       inkscape:connector-curvature="0" />
    <path
       style="opacity:1;fill:#96ffff;fill-opacity:1;stroke:#646464;stroke-width:0.94488192;stroke-miterlimit:4;stroke-dasharray:none;stroke-dashoffset:0;stroke-opacity:1"
       d="m 23.946901,109.52455 v -5.375 h -2.375 c -1.30625,0 -2.367596,-0.0844 -2.358547,-0.1875 0.009,-0.10312 4.880221,-11.268748 10.824828,-24.812498 l 10.808377,-24.625 7.48767,-0.125 7.487672,-0.125 0.06837,-4.147651 0.06836,-4.147651 11.806637,2.905505 11.806635,2.905506 0.06813,4.550762 0.06812,4.550762 7.049013,0.06638 7.049015,0.06638 8.904179,21.5 8.90418,21.499995 -3.70882,0.069 -3.70882,0.069 v 5.36849 5.36849 h -40.124997 -40.125 z"
       id="path1455"
       inkscape:connector-curvature="0" />
    <path
       style="opacity:1;fill:#ffff96;fill-opacity:1;stroke:#646464;stroke-width:0.94488192;stroke-miterlimit:4;stroke-dasharray:none;stroke-dashoffset:0;stroke-opacity:1"
       d="m 11.958791,83.764606 c 0.08379,-11.171875 0.220979,-29.228125 0.304874,-40.125 l 0.152535,-19.8125 h 5.719728 5.719729 v -6 -6 l 20.0625,-1.72e-4 c 11.034375,-9.4e-5 29.090625,-0.07486 40.125,-0.166152 l 20.062503,-0.16598 v 6.166152 6.166152 h 6.125 6.125 v 40.125 c 0,22.06875 -0.0844,40.124984 -0.1875,40.124964 -0.10313,-2e-5 -4.20118,-9.703147 -9.10679,-21.562502 l -8.919288,-21.562462 2.731788,-0.07069 2.73179,-0.07069 V 48.818918 36.827106 h -12.000003 -12 v 5.375 c 0,2.95625 -0.06811,5.375 -0.151365,5.375 -0.15155,0 -20.894902,-5.054 -22.661135,-5.521258 l -0.9375,-0.248015 V 36.06747 30.327106 h -12 -12 v 12 12 h 2.25 c 1.2375,0 2.251253,0.08438 2.252783,0.1875 0.0015,0.103125 -4.86068,11.296875 -10.804912,24.875 L 14.745834,104.07711 h -1.46969 -1.469691 z"
       id="path1457"
       inkscape:connector-curvature="0" />
  </g>
</svg>
