<?xml version="1.0" encoding="UTF-8" standalone="no"?>
<!-- Created with Inkscape (http://www.inkscape.org/) -->

<svg
   xmlns:dc="http://purl.org/dc/elements/1.1/"
   xmlns:cc="http://creativecommons.org/ns#"
   xmlns:rdf="http://www.w3.org/1999/02/22-rdf-syntax-ns#"
   xmlns:svg="http://www.w3.org/2000/svg"
   xmlns="http://www.w3.org/2000/svg"
   xmlns:sodipodi="http://sodipodi.sourceforge.net/DTD/sodipodi-0.dtd"
   xmlns:inkscape="http://www.inkscape.org/namespaces/inkscape"
   id="svg7384"
   sodipodi:docname="range-startup.svg"
   version="1.1"
   inkscape:version="0.92.2 (5c3e80d, 2017-08-06)"
   height="16.02426"
   width="16">
  <metadata
     id="metadata90">
    <rdf:RDF>
      <cc:Work
         rdf:about="">
        <dc:format>image/svg+xml</dc:format>
        <dc:type
           rdf:resource="http://purl.org/dc/dcmitype/StillImage" />
        <dc:title>Gnome Symbolic Icon Theme</dc:title>
      </cc:Work>
    </rdf:RDF>
  </metadata>
  <sodipodi:namedview
     inkscape:cy="10.721289"
     pagecolor="#555753"
     borderopacity="1"
     showborder="false"
     inkscape:bbox-paths="false"
     guidetolerance="10"
     inkscape:window-width="1516"
     showguides="true"
     inkscape:object-nodes="true"
     inkscape:snap-bbox="true"
     inkscape:pageshadow="2"
     inkscape:guide-bbox="true"
     inkscape:snap-nodes="false"
     bordercolor="#666666"
     objecttolerance="10"
     id="namedview88"
     showgrid="false"
     inkscape:window-maximized="0"
     inkscape:window-x="54"
     inkscape:snap-global="true"
     inkscape:window-y="28"
     gridtolerance="10"
     inkscape:window-height="851"
     inkscape:snap-to-guides="true"
     inkscape:current-layer="layer12"
     inkscape:zoom="32"
     inkscape:cx="1.8202771"
     inkscape:snap-grids="true"
     inkscape:pageopacity="1">
    <inkscape:grid
       spacingx="1"
       spacingy="1"
       id="grid4866"
       empspacing="2"
       enabled="true"
       type="xygrid"
       snapvisiblegridlinesonly="true"
       visible="true"
       originx="0"
       originy="0" />
  </sodipodi:namedview>
  <title
     id="title9167">Gnome Symbolic Icon Theme</title>
  <defs
     id="defs7386" />
  <g
     inkscape:label="status"
     transform="translate(-100,-685.97574)"
     inkscape:groupmode="layer"
     id="layer9"
     style="display:inline" />
  <g
     inkscape:label="devices"
     transform="translate(-100,-685.97574)"
     inkscape:groupmode="layer"
     id="layer10" />
  <g
     inkscape:label="apps"
     transform="translate(-100,-685.97574)"
     inkscape:groupmode="layer"
     id="layer11">
    <path
       style="fill:#0000ff;stroke-width:0.00390625"
       d="m 1.5531032,5.2815412 c 0,-0.00108 0.014786,-0.035801 0.032859,-0.077148 C 1.7762068,4.7691279 2.0170943,4.3443187 2.290779,3.9614359 2.8591762,3.1662525 3.5905821,2.5020742 4.4611814,1.9905273 4.5938596,1.9125682 4.6648186,1.8815076 4.7737054,1.8537272 c 0.085315,-0.021767 0.152583,-0.028665 0.2540072,-0.026048 0.1788181,0.00461 0.3343241,0.049805 0.489857,0.1423581 0.2300594,0.1369008 0.4026895,0.3796974 0.4589586,0.6455054 0.016492,0.077906 0.019908,0.114282 0.019807,0.2109375 -1.09e-4,0.1039888 -0.00542,0.1495623 -0.028028,0.2402345 C 5.9188802,3.2649942 5.8073161,3.4466991 5.6544821,3.5778443 5.5959634,3.6280587 5.5645747,3.6497335 5.4554469,3.7152848 5.2677004,3.8280612 5.0768833,3.959515 4.9210012,4.0834641 c -0.020019,0.015918 -0.037217,0.028124 -0.038218,0.027124 -0.00205,-0.00205 0.036662,-0.036552 0.080476,-0.071705 C 5.0170065,3.9957595 5.1006269,3.9341778 5.2464626,3.8303189 5.5098692,3.6427303 5.622929,3.5539669 5.7113606,3.4653264 5.8252216,3.3511964 5.8770692,3.2552094 5.9277278,3.0647616 5.9972907,2.8032437 5.9569927,2.5370595 5.8104743,2.2902552 5.775629,2.2315594 5.7572512,2.2075255 5.7165766,2.1674592 5.5795122,2.0324442 5.3381854,1.9025876 5.1362596,1.8551938 5.0952964,1.8455793 5.082881,1.8443982 5.0238063,1.8444957 4.9493857,1.8446185 4.9009328,1.8526237 4.8123511,1.8794314 4.6998531,1.9134771 4.5365716,1.9880026 4.3909938,2.0717487 3.6305252,2.5092216 2.682256,3.4164324 2.1565308,4.2094634 1.9850279,4.4681673 1.7243319,4.9546038 1.6055483,5.2375498 l -0.019242,0.045835 -0.016601,6.34e-5 c -0.00913,3.48e-5 -0.016602,-8.233e-4 -0.016602,-0.00191 z"
       id="path3731"
       inkscape:connector-curvature="0"
       transform="translate(100,685.97574)" />
    <path
       style="fill:#0000ff;stroke-width:0.00390625"
       d="m 1.5921657,5.2801956 c 0,-0.00183 0.0094,-0.025125 0.02089,-0.051765 C 1.7187105,4.9834691 1.9089517,4.6184243 2.0673612,4.3566866 2.422496,3.7699026 3.0604131,3.0707422 3.7288844,2.5356485 4.1744124,2.1790151 4.5828058,1.9394294 4.8675563,1.8676418 5.0172319,1.8299075 5.130461,1.8416402 5.3037844,1.9128434 5.4251637,1.9627074 5.5542946,2.0368435 5.6488063,2.1109258 5.7000704,2.1511088 5.7636903,2.219604 5.7911427,2.2641697 5.9488993,2.5202694 5.9949423,2.7840775 5.9281442,3.0491366 5.8791485,3.2435561 5.8223493,3.350486 5.7071817,3.4651208 5.6140731,3.5577985 5.4957387,3.6493964 5.1736454,3.8781088 4.9591566,4.0304134 4.8633136,4.1126841 4.5757704,4.3913196 4.2835092,4.6745269 4.0308547,4.9655938 3.8318385,5.2483553 l -0.023369,0.033203 -1.1081517,9.834e-4 C 2.090834,5.2830827 1.5921657,5.2820269 1.5921657,5.2801956 Z"
       id="path3733"
       inkscape:connector-curvature="0"
       transform="translate(100,685.97574)" />
    <path
       style="fill:#0000ff;stroke-width:0.00390625"
       d="m 1.5921657,5.2801956 c 0,-0.00183 0.0094,-0.025125 0.02089,-0.051765 C 1.7187105,4.9834691 1.9089517,4.6184243 2.0673612,4.3566866 2.422496,3.7699026 3.0604131,3.0707422 3.7288844,2.5356485 4.1744124,2.1790151 4.5828058,1.9394294 4.8675563,1.8676418 5.0172319,1.8299075 5.130461,1.8416402 5.3037844,1.9128434 5.4251637,1.9627074 5.5542946,2.0368435 5.6488063,2.1109258 5.7000704,2.1511088 5.7636903,2.219604 5.7911427,2.2641697 5.9488993,2.5202694 5.9949423,2.7840775 5.9281442,3.0491366 5.8791485,3.2435561 5.8223493,3.350486 5.7071817,3.4651208 5.6140731,3.5577985 5.4957387,3.6493964 5.1736454,3.8781088 4.9948247,4.0050861 4.9282349,4.059407 4.7598684,4.2156493 4.6372916,4.3293993 4.3453049,4.622034 4.2634204,4.7131991 4.0962532,4.8993126 3.9485916,5.082408 3.8318309,5.2483553 l -0.023362,0.033203 -1.1081517,9.834e-4 C 2.090834,5.2830827 1.5921657,5.2820269 1.5921657,5.2801956 Z"
       id="path3735"
       inkscape:connector-curvature="0"
       transform="translate(100,685.97574)" />
    <path
       style="fill:#0000ff;stroke-width:0.00390625"
       d="m 1.5531032,5.2817239 c 0,-0.00268 0.046942,-0.1105104 0.072343,-0.1661811 C 2.155223,3.9544728 2.9686074,2.9905916 4.0343526,2.260928 4.209586,2.1409543 4.477531,1.9756185 4.5784938,1.925165 4.6700048,1.879435 4.7892858,1.843713 4.8891943,1.832118 4.998953,1.81938 5.1313446,1.828128 5.2425563,1.855455 c 0.09684,0.0238 0.2243641,0.079645 0.3046875,0.1334276 0.2472699,0.1655675 0.4031793,0.4144023 0.4440356,0.7086906 0.00792,0.057073 0.00668,0.2094544 -0.00219,0.2675781 C 5.947895,3.2352237 5.8059458,3.4714343 5.5898899,3.6294402 5.5682282,3.6452819 5.5128571,3.6808255 5.466843,3.7084259 5.2665631,3.828559 5.1016311,3.9413021 4.938456,4.0696173 4.908701,4.0930153 4.883593,4.1113973 4.88266,4.1104643 4.88071,4.1085143 4.920411,4.0732603 4.963259,4.0388823 5.0170065,3.9957595 5.1006269,3.9341778 5.2464626,3.8303189 5.5098692,3.6427303 5.622929,3.5539669 5.7113606,3.4653264 5.8252216,3.3511964 5.8770692,3.2552094 5.9277278,3.0647616 5.9972907,2.8032437 5.9569927,2.5370595 5.8104743,2.2902552 5.775629,2.2315594 5.7572512,2.2075255 5.7165766,2.1674592 5.5795122,2.0324442 5.3381854,1.9025876 5.1362596,1.8551938 5.0952964,1.8455793 5.082881,1.8443982 5.0238063,1.8444957 4.9493857,1.8446185 4.9009328,1.8526237 4.8123511,1.8794314 4.6998531,1.9134771 4.5365716,1.9880026 4.3909938,2.0717487 3.6305252,2.5092216 2.682256,3.4164324 2.1565308,4.2094634 1.9850279,4.4681673 1.7243319,4.9546038 1.6055483,5.2375498 l -0.019242,0.045835 -0.016601,6.34e-5 c -0.00913,3.48e-5 -0.016602,-7.411e-4 -0.016602,-0.00172 z"
       id="path3737"
       inkscape:connector-curvature="0"
       transform="translate(100,685.97574)" />
    <path
       style="fill:#0000ff;stroke-width:0.00390625"
       d="m 1.5921657,5.2801956 c 0,-0.00183 0.0094,-0.025125 0.02089,-0.051765 C 1.7187105,4.9834691 1.9089517,4.6184243 2.0673612,4.3566866 2.422496,3.7699026 3.0604131,3.0707422 3.7288844,2.5356485 4.1744124,2.1790151 4.5828058,1.9394294 4.8675563,1.8676418 c 0.1496756,-0.037734 0.2629047,-0.026002 0.4362281,0.045202 0.1213793,0.049864 0.2505102,0.1240001 0.3450219,0.1980824 0.051264,0.040183 0.114884,0.1086782 0.1423364,0.1532439 0.076158,0.1236332 0.1276218,0.2523332 0.1504257,0.3761814 0.031393,0.1704916 0.018523,0.3218604 -0.043556,0.5123011 C 5.8217899,3.3864799 5.7196259,3.4914762 5.2347438,3.8343089 4.9544024,4.0325225 4.8920878,4.0852874 4.5846944,4.3847393 4.2680896,4.6931644 4.0315557,4.9644945 3.8318309,5.2483553 l -0.023362,0.033203 -1.1081517,9.834e-4 C 2.090834,5.2830827 1.5921657,5.2820269 1.5921657,5.2801956 Z"
       id="path3739"
       inkscape:connector-curvature="0"
       transform="translate(100,685.97574)" />
    <path
       style="fill:#0000ff;stroke-width:0.00390625"
       d="m 1.5921657,5.2801956 c 0,-0.00183 0.0094,-0.025125 0.02089,-0.051765 C 1.7187105,4.9834691 1.9089517,4.6184243 2.0673612,4.3566866 2.422496,3.7699026 3.0604131,3.0707422 3.7288844,2.5356485 4.1744124,2.1790151 4.5828058,1.9394294 4.8675563,1.8676418 5.0172319,1.8299075 5.130461,1.8416402 5.3037844,1.9128434 5.4251637,1.9627074 5.5542946,2.0368435 5.6488063,2.1109258 5.7000704,2.1511088 5.7636903,2.219604 5.7911427,2.2641697 5.9488993,2.5202694 5.9949423,2.7840775 5.9281442,3.0491366 5.8791485,3.2435561 5.8223493,3.350486 5.7071817,3.4651208 5.6140731,3.5577985 5.4957387,3.6493964 5.1736454,3.8781088 4.9571937,4.0318072 4.8817097,4.0964267 4.6050139,4.3648964 4.2800942,4.6801564 4.0328175,4.9627012 3.8318309,5.2483553 l -0.023362,0.033203 -1.1081517,9.834e-4 C 2.090834,5.2830827 1.5921657,5.2820269 1.5921657,5.2801956 Z"
       id="path3741"
       inkscape:connector-curvature="0"
       transform="translate(100,685.97574)" />
    <path
       style="fill:#0000ff;stroke-width:0.00390625"
       d="m 1.5531032,5.2819049 c 0,-0.010104 0.1098738,-0.2495485 0.1722347,-0.3753465 C 2.1791246,3.9911548 2.8093018,3.2123368 3.6175563,2.5680198 3.8392251,2.3913118 4.1071498,2.2046018 4.3529465,2.0555448 4.5821518,1.9165492 4.646,1.8859966 4.775209,1.8534839 c 0.086447,-0.021753 0.1515769,-0.028409 0.2525036,-0.025805 0.14764,0.00381 0.2713021,0.033079 0.3994085,0.094536 0.209052,0.1002898 0.3682688,0.2571519 0.4678251,0.4609054 0.0358,0.073268 0.053157,0.120116 0.072291,0.1951125 0.023642,0.092666 0.028981,0.1379812 0.02902,0.2462938 3.91e-5,0.1060995 -0.00508,0.1504447 -0.02795,0.2421875 -0.056574,0.2269476 -0.1941598,0.4303002 -0.3828488,0.5658516 -0.020659,0.014841 -0.079017,0.051889 -0.1296852,0.082329 -0.082208,0.049387 -0.1978764,0.1229087 -0.2464203,0.1566291 -0.1200568,0.083396 -0.1908654,0.1351768 -0.2708972,0.1981005 -0.029755,0.023394 -0.054863,0.041772 -0.055796,0.04084 -0.00195,-0.00195 0.037751,-0.037204 0.080599,-0.071582 C 5.0170065,3.9957595 5.1006269,3.9341778 5.2464626,3.8303189 5.5098692,3.6427303 5.622929,3.5539669 5.7113606,3.4653264 5.8252216,3.3511964 5.8770692,3.2552094 5.9277278,3.0647616 5.9972907,2.8032437 5.9569927,2.5370595 5.8104743,2.2902552 5.775629,2.2315594 5.7572512,2.2075255 5.7165766,2.1674592 5.5795122,2.0324442 5.3381854,1.9025876 5.1362596,1.8551938 5.0952964,1.8455793 5.082881,1.8443982 5.0238063,1.8444957 4.9493857,1.8446185 4.9009328,1.8526237 4.8123511,1.8794314 4.6998531,1.9134771 4.5365716,1.9880026 4.3909938,2.0717487 3.6305252,2.5092216 2.682256,3.4164324 2.1565308,4.2094634 1.9850279,4.4681673 1.7243319,4.9546038 1.6055483,5.2375498 l -0.019242,0.045835 -0.016601,6.34e-5 c -0.00913,3.48e-5 -0.016602,-6.596e-4 -0.016602,-0.00154 z"
       id="path3743"
       inkscape:connector-curvature="0"
       transform="translate(100,685.97574)" />
    <path
       style="fill:#0000ff;stroke-width:0.00390625"
       d="m 1.5531032,5.2819049 c 0,-0.011347 0.1130472,-0.2563144 0.1813265,-0.3929246 C 2.1256165,4.1063114 2.6428446,3.4265984 3.2894313,2.8454816 3.6530416,2.5186886 4.0232089,2.2492044 4.4730251,1.9838176 4.5938835,1.9125124 4.6684719,1.880342 4.775209,1.8534839 c 0.086447,-0.021753 0.1515769,-0.028409 0.2525036,-0.025805 0.14764,0.00381 0.2713021,0.033079 0.3994085,0.094536 0.2089149,0.1002241 0.3683341,0.2572854 0.4678251,0.4609054 0.0358,0.073268 0.053157,0.120116 0.072291,0.1951125 0.023642,0.092666 0.028981,0.1379812 0.02902,0.2462938 C 5.9962963,2.9322 5.9910972,2.9761809 5.9671532,3.0706203 5.9139922,3.280322 5.7964833,3.4631608 5.6253692,3.6024235 5.5886142,3.6323375 5.5394012,3.6649865 5.4554473,3.7151559 5.3804353,3.7599819 5.2570825,3.8383583 5.2093536,3.8715205 5.0887943,3.9552855 5.0185048,4.006687 4.9384564,4.0696238 c -0.029755,0.023394 -0.054863,0.041772 -0.055796,0.04084 -0.00195,-0.00195 0.037751,-0.037204 0.080599,-0.071582 C 5.0170065,3.9957595 5.1006269,3.9341778 5.2464626,3.8303189 5.5098692,3.6427303 5.622929,3.5539669 5.7113606,3.4653264 5.8252216,3.3511964 5.8770692,3.2552094 5.9277278,3.0647616 5.9972907,2.8032437 5.9569927,2.5370595 5.8104743,2.2902552 5.775629,2.2315594 5.7572512,2.2075255 5.7165766,2.1674592 5.5795122,2.0324442 5.3381854,1.9025876 5.1362596,1.8551938 5.0952964,1.8455793 5.082881,1.8443982 5.0238063,1.8444957 4.9493857,1.8446185 4.9009328,1.8526237 4.8123511,1.8794314 4.6998531,1.9134771 4.5365716,1.9880026 4.3909938,2.0717487 3.6305252,2.5092216 2.682256,3.4164324 2.1565308,4.2094634 1.9850279,4.4681673 1.7243319,4.9546038 1.6055483,5.2375498 l -0.019242,0.045835 -0.016601,6.34e-5 c -0.00913,3.48e-5 -0.016602,-6.596e-4 -0.016602,-0.00154 z"
       id="path3745"
       inkscape:connector-curvature="0"
       transform="translate(100,685.97574)" />
    <path
       style="fill:#0000ff;stroke-width:0.00390625"
       d="m 1.5531032,5.2819049 c 0,-0.011346 0.1128673,-0.2558439 0.1813851,-0.3929246 C 2.2527819,3.852052 2.997991,2.9888865 3.9574001,2.314212 4.1529761,2.1766792 4.4605205,1.9840249 4.5784938,1.9251416 4.6699553,1.879491 4.7900215,1.8436321 4.8904434,1.831975 c 0.073267,-0.0085 0.1984351,-0.00575 0.2661754,0.00585 0.2514767,0.04308 0.4701235,0.1703352 0.6241465,0.3632625 0.059675,0.074748 0.1234695,0.1882003 0.1571274,0.2794343 0.060756,0.1646899 0.076165,0.3574318 0.042458,0.5310771 C 5.9418149,3.2101164 5.84887,3.3859455 5.7074532,3.527855 5.6350727,3.6004876 5.5847637,3.6378792 5.4554469,3.7151565 5.3804348,3.7599824 5.2570821,3.8383589 5.2093532,3.8715211 5.0887939,3.9552859 5.0185044,4.0066876 4.938456,4.0696244 4.908701,4.0930184 4.883593,4.1113964 4.88266,4.1104644 4.88071,4.1085144 4.920411,4.0732604 4.963259,4.0388824 5.0170065,3.9957595 5.1006269,3.9341778 5.2464626,3.8303189 5.5098692,3.6427303 5.622929,3.5539669 5.7113606,3.4653264 5.8252216,3.3511964 5.8770692,3.2552094 5.9277278,3.0647616 5.9972907,2.8032437 5.9569927,2.5370595 5.8104743,2.2902552 5.775629,2.2315594 5.7572512,2.2075255 5.7165766,2.1674592 5.5795122,2.0324442 5.3381854,1.9025876 5.1362596,1.8551938 5.0952964,1.8455793 5.082881,1.8443982 5.0238063,1.8444957 4.9493857,1.8446185 4.9009328,1.8526237 4.8123511,1.8794314 4.6998531,1.9134771 4.5365716,1.9880026 4.3909938,2.0717487 3.6305252,2.5092216 2.682256,3.4164324 2.1565308,4.2094634 1.9850279,4.4681673 1.7243319,4.9546038 1.6055483,5.2375498 l -0.019242,0.045835 -0.016601,6.34e-5 c -0.00913,3.48e-5 -0.016602,-6.596e-4 -0.016602,-0.00154 z"
       id="path3747"
       inkscape:connector-curvature="0"
       transform="translate(100,685.97574)" />
    <path
       style="fill:#0000ff;stroke-width:0.00390625"
       d="M 1.9954417,4.440418 V 4.410445 L 2.0468477,4.327757 C 2.2821243,3.9493078 2.5490149,3.6007413 2.8568488,3.269873 2.9374222,3.1832705 3.1571302,2.9656028 3.2415355,2.8887586 3.6242412,2.5403362 4.0150455,2.2528585 4.4661449,1.9879296 4.6295294,1.8919745 4.7328078,1.8535831 4.8860667,1.8318333 c 0.050696,-0.00719 0.1880196,-0.00607 0.2441407,0.00199 0.2521813,0.036247 0.4731951,0.1572309 0.632444,0.3462029 C 5.9841507,2.4428704 6.0556671,2.7996496 5.9519105,3.124199 5.8944996,3.3037805 5.7930064,3.4582461 5.6536449,3.5781393 5.5986938,3.6254139 5.5599592,3.6524016 5.468098,3.7074159 5.264609,3.8292824 5.0752956,3.9595184 4.9159654,4.0872489 4.8948121,4.104207 4.8766987,4.1172757 4.8757134,4.1162905 4.8691748,4.1097519 5.0625013,3.9599804 5.2298167,3.841964 5.4996487,3.6516373 5.6152983,3.5609118 5.7122386,3.4635108 5.8196605,3.3555785 5.8691657,3.2689387 5.9153394,3.108061 5.9489472,2.9909655 5.9602855,2.9162564 5.9602855,2.8119025 5.9602855,2.6291192 5.9091605,2.4537736 5.805723,2.2817945 5.7510246,2.1908506 5.6877996,2.1288651 5.5677074,2.0484449 5.4329291,1.9581902 5.2442342,1.8752482 5.1205938,1.8519136 5.047893,1.8381927 4.9803035,1.8395999 4.9016917,1.8564712 4.5398131,1.9341358 3.9814319,2.2892738 3.3919628,2.8166793 2.8311574,3.318439 2.3460446,3.8838744 2.0466172,4.3847803 l -0.051176,0.08561 z"
       id="path3751"
       inkscape:connector-curvature="0"
       transform="translate(100,685.97574)" />
    <path
       style="fill:#0000ff;stroke-width:0.00390625"
       d="M 1.9954417,4.440418 V 4.410445 L 2.0468477,4.327757 C 2.2821243,3.9493078 2.5490149,3.6007413 2.8568488,3.269873 2.9374222,3.1832705 3.1571302,2.9656028 3.2415355,2.8887586 3.6242412,2.5403362 4.0150455,2.2528585 4.4661449,1.9879296 4.6295294,1.8919745 4.7328078,1.8535831 4.8860667,1.8318333 c 0.050696,-0.00719 0.1880196,-0.00607 0.2441407,0.00199 0.230714,0.033161 0.4275718,0.1325734 0.5859468,0.2958997 C 5.9484078,2.3692405 6.0444777,2.6990985 5.9774628,3.0269355 5.934107,3.2390326 5.8179124,3.4368194 5.6536449,3.5781393 5.5986938,3.6254139 5.5599592,3.6524016 5.468098,3.7074159 5.264609,3.8292824 5.0752956,3.9595184 4.9159654,4.0872489 4.8948121,4.104207 4.8766987,4.1172757 4.8757134,4.1162905 4.8691748,4.1097519 5.0625013,3.9599804 5.2298167,3.841964 5.4996487,3.6516373 5.6152983,3.5609118 5.7122386,3.4635108 5.8196605,3.3555785 5.8691657,3.2689387 5.9153394,3.108061 5.9489472,2.9909655 5.9602855,2.9162564 5.9602855,2.8119025 5.9602855,2.6291192 5.9091605,2.4537736 5.805723,2.2817945 5.7510246,2.1908506 5.6877996,2.1288651 5.5677074,2.0484449 5.4329291,1.9581902 5.2442342,1.8752482 5.1205938,1.8519136 5.047893,1.8381927 4.9803035,1.8395999 4.9016917,1.8564712 4.5398131,1.9341358 3.9814319,2.2892738 3.3919628,2.8166793 2.8311574,3.318439 2.3460446,3.8838744 2.0466172,4.3847803 l -0.051176,0.08561 z"
       id="path3753"
       inkscape:connector-curvature="0"
       transform="translate(100,685.97574)" />
  </g>
  <g
     inkscape:label="actions"
     transform="translate(-100,-685.97574)"
     inkscape:groupmode="layer"
     id="layer12">
    <path
       inkscape:connector-curvature="0"
       d="m 104.84002,687.8125 a 0.99998337,1.0002168 0 0 0 -0.34813,0.13393 c -1.05343,0.60965 -1.93145,1.46598 -2.54405,2.51786 -1.93955,3.33036 -0.81232,7.64928 2.51727,9.58928 3.32959,1.94001 7.64749,0.8125 9.58705,-2.51786 1.93955,-3.33035 0.81232,-7.64927 -2.51727,-9.58928 a 1.0081498,1.0083851 0 1 0 -1.01762,1.74107 c 2.39572,1.39588 3.18978,4.43408 1.79422,6.83036 -1.39555,2.39628 -4.43303,3.19052 -6.82876,1.79464 -2.38544,-1.38989 -3.19179,-4.41207 -1.821,-6.80357 l 0.0268,-0.0268 c 0.43759,-0.75138 1.06851,-1.38594 1.821,-1.82142 a 0.99998337,1.0002168 0 0 0 -0.66949,-1.84822 z"
       id="path3869-2"
       style="font-size:medium;font-style:normal;font-variant:normal;font-weight:normal;font-stretch:normal;text-indent:0;text-align:start;text-decoration:none;line-height:normal;letter-spacing:normal;word-spacing:normal;text-transform:none;direction:ltr;block-progression:tb;writing-mode:lr-tb;text-anchor:start;baseline-shift:baseline;color:#000000;fill:#0000ff;fill-opacity:1;stroke:none;stroke-width:2.333606;marker:none;visibility:visible;display:inline;overflow:visible;enable-background:accumulate;font-family:Sans;-inkscape-font-specification:Sans" />
    <path
       inkscape:connector-curvature="0"
       d="M 107.78125,686 A 1.0001,1.0001 0 0 0 107,687 l 0,5 a 1.0001,1.0001 0 1 0 2,0 l 0,-5 a 1.0001,1.0001 0 0 0 -1.21875,-1 z"
       id="path4710"
       style="font-size:medium;font-style:normal;font-variant:normal;font-weight:normal;font-stretch:normal;text-indent:0;text-align:start;text-decoration:none;line-height:normal;letter-spacing:normal;word-spacing:normal;text-transform:none;direction:ltr;block-progression:tb;writing-mode:lr-tb;text-anchor:start;baseline-shift:baseline;color:#000000;fill:#0000ff;fill-opacity:1;stroke:none;stroke-width:2;marker:none;visibility:visible;display:inline;overflow:visible;enable-background:accumulate;font-family:Sans;-inkscape-font-specification:Sans" />
    <path
       style="fill:#0000ff;stroke-width:0.0625"
       d="M 7.7450095,6.9749325 C 7.4777432,6.888985 7.3083896,6.7592775 7.1653053,6.5309381 7.0295357,6.3142719 7.02823,6.2856969 7.02823,3.5309381 c 0,-2.66884441 0.00505,-2.78982691 0.125,-2.99346689 0.2071227,-0.35163928 0.4266224,-0.47528316 0.84375,-0.47528316 0.4171277,0 0.6366274,0.12364388 0.8437501,0.47528316 0.119948,0.20363998 0.125,0.32462248 0.125,2.99346689 0,2.516121 -0.010282,2.8000381 -0.1078598,2.9783413 C 8.6605218,6.8698925 8.1207302,7.0957569 7.7450095,6.9749325 Z"
       id="path3707"
       inkscape:connector-curvature="0"
       transform="translate(100,685.97574)" />
    <path
       style="fill:#0000ff;stroke-width:0.0625"
       d="M 7.4032301,14.957631 C 5.7315073,14.837843 4.1878063,14.10575 2.9922717,12.865755 1.0234892,10.823755 0.48515856,7.8399516 1.6133853,5.2230063 1.7432615,4.9217558 1.9875468,4.4670204 2.1562415,4.2124833 2.9037458,3.0846019 4.4086587,1.8434386 5.0287125,1.8434386 c 0.2199428,0 0.6330843,0.2197788 0.7507671,0.3993855 C 5.9493065,2.5020126 6.0007039,2.7847607 5.9277957,3.0587417 5.8426145,3.3788427 5.7649375,3.4639088 5.1864979,3.8705555 4.1187972,4.621156 3.3400083,5.7664061 3.0876795,6.9569792 2.957555,7.5709507 2.9727304,8.5823867 3.1213692,9.2023817 c 0.341805,1.4257203 1.3258568,2.6488473 2.6567717,3.3022333 0.8471778,0.415904 1.2159853,0.495524 2.2813392,0.492507 0.8564906,-0.0024 0.9388506,-0.01375 1.5,-0.206319 C 10.927123,12.321482 11.912489,11.444298 12.525531,10.150392 12.97751,9.1964292 13.122978,7.9793761 12.90688,6.9598426 12.644751,5.7231384 11.856633,4.5807368 10.74698,3.8289993 10.232331,3.4803488 10.05948,3.2325598 10.05948,2.8434386 c 0,-0.5522979 0.413241,-0.9642857 0.96722,-0.9642857 0.311058,0 0.384378,0.030759 0.888558,0.3727678 2.770108,1.8790914 3.805845,5.4808575 2.467584,8.5809943 -0.318044,0.736761 -0.724826,1.346031 -1.305205,1.954909 -0.623424,0.654036 -1.127969,1.034829 -1.882709,1.420927 -1.2238098,0.626058 -2.3637448,0.851201 -3.7916979,0.74888 z"
       id="path19"
       inkscape:connector-curvature="0"
       transform="translate(100,685.97574)" />
    <path
       style="fill:#0000ff;stroke-width:0.0625"
       d="M 7.5731165,6.8644961 C 7.4603041,6.8088929 7.3056166,6.6759398 7.2293665,6.5690442 7.0920445,6.3765311 7.0905582,6.3490642 7.072602,3.671913 7.0611535,1.9650154 7.078058,0.88155294 7.1184802,0.73143625 7.1536837,0.60070053 7.2691568,0.41069952 7.3750872,0.30921176 7.550192,0.14145077 7.6066851,0.12468857 7.9969801,0.12468857 c 0.390295,0 0.4467881,0.0167622 0.6218929,0.18452319 C 8.7248033,0.41069952 8.8402765,0.60070053 8.87548,0.73143625 8.9159056,0.88156532 8.9328077,1.9659234 8.9213582,3.6747605 8.901019,6.7103917 8.918462,6.5965292 8.4360559,6.8426348 8.1397662,6.9937904 7.8503183,7.0011229 7.5731165,6.8644961 Z"
       id="path21"
       inkscape:connector-curvature="0"
       transform="translate(100,685.97574)" />
    <path
       style="fill:#0000ff;stroke-width:0.0625"
       d="M 7.1220893,14.897985 C 4.5992658,14.606015 2.3792997,12.833715 1.4923979,10.403546 0.9615123,8.9488854 0.92931563,7.2805343 1.4047936,5.8641099 1.6147892,5.2385439 2.0480023,4.3915244 2.3918379,3.9342379 3.0128934,3.1082611 4.2566659,2.0749229 4.815193,1.9208911 5.272709,1.7947163 5.8184392,2.1507337 5.9092122,2.6345949 c 0.073969,0.3942912 -0.075463,0.6955225 -0.5059821,1.0199789 -0.20625,0.1554381 -0.6421875,0.5499818 -0.96875,0.8767638 -1.0214914,1.0221781 -1.4375,2.0259093 -1.4375,3.468351 0,0.5595331 0.033502,0.8922562 0.1264306,1.2556275 0.4085543,1.5975399 1.5374236,2.8544279 3.1287692,3.4835829 0.5767324,0.228017 1.2080777,0.311378 2.0874189,0.275618 0.8400169,-0.03416 1.3446825,-0.175227 2.0873892,-0.583469 1.615635,-0.888065 2.567424,-2.5296844 2.577093,-4.4449021 0.0085,-1.6837243 -0.732455,-3.0835501 -2.195412,-4.1476155 -0.568197,-0.4132716 -0.701112,-0.6039731 -0.701112,-1.0059284 0,-0.5088772 0.414145,-0.9266634 0.918586,-0.9266634 0.494638,0 1.638433,0.8455453 2.35457,1.7406052 1.72698,2.1584586 2.033826,5.072586 0.793723,7.5380062 -0.335197,0.666397 -0.742484,1.206057 -1.375352,1.822358 -1.508603,1.469112 -3.5235108,2.140303 -5.6769947,1.891077 z"
       id="path23"
       inkscape:connector-curvature="0"
       transform="translate(100,685.97574)" />
    <path
       style="fill:#0000ff;stroke-width:0.0625"
       d="M 7.1124347,14.903477 C 6.0456889,14.778963 4.7162128,14.245057 3.8687873,13.600857 1.1612758,11.542646 0.29744285,7.9419873 1.7900385,4.9361421 1.9501735,4.6136561 2.2145739,4.1716999 2.377595,3.9540171 3.006771,3.1138752 4.2503128,2.0766749 4.815193,1.9208911 5.2698003,1.7955185 5.8183908,2.1504757 5.9079662,2.6279535 5.9761044,2.9911614 5.8449037,3.3084645 5.5157706,3.5764613 4.6739262,4.2619336 4.4341747,4.482648 4.1013628,4.87856 3.9009608,5.1169576 3.6120335,5.5651753 3.459302,5.8745994 3.0772851,6.6485409 2.978649,7.1655714 3.0121577,8.2184386 c 0.023456,0.7370237 0.050867,0.9127606 0.2166961,1.3893306 0.4589851,1.3190568 1.3283769,2.2976598 2.6119802,2.9400908 0.6500034,0.325322 1.0434845,0.42254 1.8765973,0.463659 0.8835857,0.04361 1.4027169,-0.03101 2.10805,-0.303017 C 11.434277,12.088085 12.625506,10.616161 12.935569,8.8655679 13.042492,8.2618917 12.983369,7.0628478 12.821514,6.5524583 12.502114,5.5452686 11.795197,4.593801 10.807867,3.8422108 10.225986,3.3992619 10.108677,3.2315545 10.10268,2.8340571 c -0.0052,-0.3431435 0.119486,-0.5583518 0.456164,-0.7874935 0.449962,-0.3062408 1.013755,-0.1004838 1.979702,0.7224943 1.064303,0.906775 1.859813,2.2256 2.221028,3.682098 0.183324,0.7392018 0.198224,2.2306489 0.03014,3.0172827 -0.143244,0.6703914 -0.473838,1.5118364 -0.847004,2.1558314 -0.41806,0.721475 -1.592263,1.886637 -2.347128,2.329058 -1.41463,0.829104 -2.8727097,1.138126 -4.4831513,0.950149 z"
       id="path25"
       inkscape:connector-curvature="0"
       transform="translate(100,685.97574)" />
    <path
       style="fill:#0000ff;stroke-width:0.0625"
       d="M 7.072506,14.905909 C 6.0084391,14.755823 4.9183664,14.329724 4.0334107,13.717954 3.4948415,13.345642 2.6364055,12.479525 2.2683259,11.937077 0.74870664,9.6975742 0.66317226,6.8035295 2.0468268,4.442681 2.5882611,3.5188634 4.0859711,2.1424006 4.7755402,1.9348708 5.4710187,1.7255626 6.1101783,2.4197441 5.8656877,3.1188636 5.800172,3.3062054 5.6606272,3.4633159 5.3094801,3.7450853 3.663047,5.0662256 3.00109,6.2809646 2.9980653,7.9866984 c -0.00367,2.0673036 1.0979014,3.7593276 3.0181379,4.6359056 0.679381,0.310133 1.0291388,0.374085 2.0432769,0.373601 1.0291119,-5e-4 1.3261925,-0.06563 2.1676189,-0.475272 0.960632,-0.467679 1.755722,-1.274036 2.239507,-2.271244 0.417496,-0.8605686 0.49663,-1.2234636 0.497455,-2.2812504 6.25e-4,-0.77524 -0.02038,-0.9740138 -0.145178,-1.375 C 12.519219,5.6305819 11.941781,4.7856812 11.12198,4.1105511 10.898543,3.9265438 10.596924,3.6773368 10.451718,3.5567576 9.9787107,3.1639749 9.9584095,2.5548803 10.405248,2.1625508 c 0.425168,-0.3733024 0.811108,-0.3459213 1.47488,0.1046377 1.369476,0.9295811 2.319798,2.254081 2.812579,3.9200001 0.196799,0.6653071 0.203325,0.7238156 0.202177,1.8125 -0.0011,1.0119587 -0.01749,1.1857256 -0.16342,1.7293462 -0.3412,1.2710322 -0.836595,2.1483252 -1.741088,3.0832902 -1.020785,1.055175 -2.191485,1.710464 -3.5861728,2.007327 -0.5381231,0.114542 -1.8001694,0.161228 -2.3316972,0.08626 z"
       id="path27"
       inkscape:connector-curvature="0"
       transform="translate(100,685.97574)" />
    <path
       style="fill:#0000ff;stroke-width:0.01104854"
       d="M 7.8203331,6.9902183 C 7.7494016,6.9748655 7.5961932,6.9158463 7.5288901,6.8779481 7.3905395,6.800043 7.2842895,6.699841 7.1906042,6.5589183 7.0897992,6.407286 7.0710398,6.3300733 7.0497743,5.9792722 7.0299543,5.6523157 7.0307025,1.4583329 7.0506437,1.1064047 c 0.017273,-0.30484225 0.032104,-0.40698832 0.059858,-0.41226903 0.016721,-0.003181 0.017824,3.8481e-4 0.00806,0.0260582 -0.04237,0.11145013 -0.059328,1.06341363 -0.050372,2.82793893 0.00769,1.5151007 0.020616,2.3566497 0.03987,2.5957415 0.022474,0.2790758 0.054096,0.3652316 0.1852472,0.5047105 0.1711841,0.1820539 0.3442999,0.2763178 0.5673557,0.3089329 0.2102774,0.030747 0.4345631,-0.024889 0.6987684,-0.173335 0.047978,-0.026957 0.089333,-0.046913 0.091899,-0.044347 0.010157,0.010157 -0.1440181,0.1093651 -0.2415405,0.1554258 -0.1483258,0.070056 -0.2537297,0.095731 -0.4126799,0.1005243 -0.07292,0.0022 -0.1524699,-3.06e-4 -0.1767766,-0.00557 z"
       id="path24"
       inkscape:connector-curvature="0"
       transform="translate(100,685.97574)" />
    <path
       style="fill:#0000ff;stroke-width:0.01104854"
       d="m 8.9439141,5.8572784 c 2.252e-4,-0.01823 0.0027,-0.02435 0.0055,-0.0136 0.0028,0.01075 0.00262,0.025665 -4.094e-4,0.033146 -0.00303,0.00748 -0.00532,-0.00132 -0.00509,-0.019545 z"
       id="path26"
       inkscape:connector-curvature="0"
       transform="translate(100,685.97574)" />
    <path
       style="fill:#0000ff;stroke-width:0.01104854"
       d="m 8.754384,6.6330499 c -2.47e-4,-0.00477 0.00669,-0.019687 0.01541,-0.033146 C 8.799459,6.5541327 8.8407483,6.410043 8.8575392,6.2936959 8.9027746,5.980252 8.9163302,5.4376301 8.92599,3.5536571 8.9349606,1.8040973 8.9174175,0.83003882 8.874924,0.71827223 8.866014,0.69484793 8.867334,0.69102483 8.883234,0.69408763 8.905759,0.69842563 8.913343,0.73111073 8.930197,0.89648245 8.973331,1.3197329 8.974146,5.6007161 8.9311939,6.133492 8.9164319,6.3165955 8.8927949,6.4267091 8.8514459,6.504995 8.8193649,6.565733 8.7552749,6.6502873 8.7543829,6.6330499 Z"
       id="path28"
       inkscape:connector-curvature="0"
       transform="translate(100,685.97574)" />
    <path
       style="fill:#0000ff;stroke-width:0.01104854"
       d="m 14.759884,9.7270308 c 0.07,-0.2713149 0.134368,-0.6385525 0.171872,-0.9805583 0.02844,-0.2593824 0.04009,-0.8893408 0.02155,-1.1656213 C 14.847889,6.0100041 14.244354,4.5550115 13.211778,3.3824047 13.061933,3.212238 12.732967,2.8891234 12.54911,2.7315222 12.113168,2.357836 11.516173,1.9588511 11.306149,1.9008241 c -0.09603,-0.026531 -0.32895,-0.032408 -0.449621,-0.011344 -0.384343,0.067088 -0.660941,0.3135883 -0.766143,0.6827755 -0.03016,0.1058558 -0.04094,0.3195115 -0.02202,0.4367679 0.0284,0.1760724 0.107033,0.326289 0.250273,0.4781308 0.07849,0.083205 0.250699,0.2270443 0.3537,0.2954329 0.10806,0.071748 0.05251,0.0508 -0.08072,-0.030438 -0.17189,-0.1048119 -0.266672,-0.182258 -0.347431,-0.2838853 -0.157341,-0.1979966 -0.229373,-0.4242142 -0.216476,-0.6798413 0.0076,-0.1514885 0.0286,-0.2362495 0.09182,-0.3712927 0.168657,-0.3603096 0.507499,-0.575997 0.904884,-0.575997 0.266892,0 0.411316,0.058334 0.834165,0.3369303 1.283863,0.8458788 2.254743,2.1026346 2.752677,3.5632055 0.426274,1.2503727 0.500172,2.5851124 0.212873,3.8448931 -0.04877,0.2138597 -0.05791,0.243068 -0.07605,0.243068 -0.01119,0 -0.0085,-0.023626 0.01181,-0.102199 z"
       id="path30"
       inkscape:connector-curvature="0"
       transform="translate(100,685.97574)" />
    <path
       style="fill:#0000ff;stroke-width:0.01104854"
       d=""
       id="path32"
       inkscape:connector-curvature="0"
       transform="translate(100,685.97574)" />
    <path
       style="fill:#0000ff;stroke-width:0.01104854"
       d="m 7.0967614,0.67827367 c 2.041e-4,-0.0261132 0.05655,-0.13500922 0.1163977,-0.2249552 0.1186938,-0.17838575 0.2888762,-0.30663989 0.46727,-0.35214762 0.1702547,-0.04343146 0.4637008,-0.04337481 0.6335699,1.2231e-4 0.1803152,0.046172 0.3472916,0.17202255 0.4670614,0.35202531 0.059848,0.089946 0.1161936,0.19884202 0.1163977,0.2249552 2.718e-4,0.034719 -0.031294,0.008208 -0.053223,-0.0447017 C 8.7711302,0.45719437 8.5883783,0.24572609 8.4501,0.1775057 8.3591386,0.13262937 8.2485208,0.11813019 7.9971097,0.11813019 c -0.2513884,0 -0.3620281,0.0145002 -0.4529902,0.0593678 -0.1372228,0.0676859 -0.3209268,0.27944719 -0.392751,0.45273591 -0.023046,0.0556022 -0.054885,0.0836123 -0.054607,0.0480398 z"
       id="path34"
       inkscape:connector-curvature="0"
       transform="translate(100,685.97574)" />
    <path
       style="fill:#0000ff;stroke-width:0.01104854"
       d=""
       id="path36"
       inkscape:connector-curvature="0"
       transform="translate(100,685.97574)" />
  </g>
  <g
     inkscape:label="places"
     transform="translate(-100,-685.97574)"
     inkscape:groupmode="layer"
     id="layer13" />
  <g
     inkscape:label="mimetypes"
     transform="translate(-100,-685.97574)"
     inkscape:groupmode="layer"
     id="layer14" />
  <g
     inkscape:label="emblems"
     transform="translate(-100,-685.97574)"
     inkscape:groupmode="layer"
     id="layer15"
     style="display:inline" />
  <g
     inkscape:label="categories"
     transform="translate(-100,-685.97574)"
     inkscape:groupmode="layer"
     id="g4953"
     style="display:inline" />
</svg>
