<?xml version="1.0" encoding="UTF-8" standalone="no"?>
<!-- Created with Inkscape (http://www.inkscape.org/) -->

<svg
   xmlns:dc="http://purl.org/dc/elements/1.1/"
   xmlns:cc="http://creativecommons.org/ns#"
   xmlns:rdf="http://www.w3.org/1999/02/22-rdf-syntax-ns#"
   xmlns:svg="http://www.w3.org/2000/svg"
   xmlns="http://www.w3.org/2000/svg"
   xmlns:sodipodi="http://sodipodi.sourceforge.net/DTD/sodipodi-0.dtd"
   xmlns:inkscape="http://www.inkscape.org/namespaces/inkscape"
   width="128px"
   height="128px"
   viewBox="0 0 128 128"
   version="1.1"
   id="SVGRoot"
   inkscape:version="0.92.3 (2405546, 2018-03-11)"
   sodipodi:docname="range-generic_action.svg">
  <sodipodi:namedview
     id="base"
     pagecolor="#ffffff"
     bordercolor="#666666"
     borderopacity="1.0"
     inkscape:pageopacity="0.0"
     inkscape:pageshadow="2"
     inkscape:zoom="2"
     inkscape:cx="-37"
     inkscape:cy="63"
     inkscape:document-units="px"
     inkscape:current-layer="layer1"
     showgrid="false"
     inkscape:window-width="2560"
     inkscape:window-height="1341"
     inkscape:window-x="0"
     inkscape:window-y="28"
     inkscape:window-maximized="1"
     inkscape:grid-bbox="true" />
  <defs
     id="defs2217">
    <clipPath
       clipPathUnits="userSpaceOnUse"
       id="clipPath820">
      <rect
         style="opacity:1;fill:#4d4d4d;fill-opacity:1;stroke:none;stroke-width:7.55905533;stroke-linecap:round;stroke-linejoin:round;stroke-miterlimit:4;stroke-dasharray:none;stroke-dashoffset:11.33720303;stroke-opacity:1"
         id="rect822"
         width="128"
         height="128"
         x="0"
         y="0" />
    </clipPath>
    <clipPath
       clipPathUnits="userSpaceOnUse"
       id="clipPath824">
      <rect
         style="opacity:1;fill:#4d4d4d;fill-opacity:1;stroke:none;stroke-width:7.55905533;stroke-linecap:round;stroke-linejoin:round;stroke-miterlimit:4;stroke-dasharray:none;stroke-dashoffset:11.33720303;stroke-opacity:1"
         id="rect826"
         width="128"
         height="128"
         x="0"
         y="0" />
    </clipPath>
  </defs>
  <metadata
     id="metadata2220">
    <rdf:RDF>
      <cc:Work
         rdf:about="">
        <dc:format>image/svg+xml</dc:format>
        <dc:type
           rdf:resource="http://purl.org/dc/dcmitype/StillImage" />
        <dc:title />
      </cc:Work>
    </rdf:RDF>
  </metadata>
  <g
     id="layer1"
     inkscape:groupmode="layer"
     inkscape:label="Emblem">
    <path
       style="display:inline;fill:#e6e6e6;fill-opacity:1;stroke:#000000;stroke-width:7.58518505;stroke-miterlimit:4;stroke-dasharray:none;stroke-opacity:1"
       clip-path="url(#clipPath824)"
       d="m -5.6545655,-60.207411 c -1.469919,0 -2.773878,0.971668 -3.200629,2.369905 l -3.4613265,11.494045 c -4.125256,1.090155 -8.037135,2.725388 -11.735637,4.858306 l -10.5743,-5.664162 c -1.30396,-0.687278 -2.892327,-0.473983 -3.935494,0.59247 l -8.013148,7.986865 c -1.043168,1.042752 -1.280251,2.654103 -0.592709,3.957553 l 5.690006,10.546079 c -2.133752,3.697056 -3.769629,7.607398 -4.860213,11.731033 l -11.498556,3.4599695 c -1.422501,0.426579 -2.370835,1.730029 -2.370835,3.199371 v 11.328335 c 0,1.469342 0.972042,2.772792 2.370835,3.199372 L -46.338016,12.3117 c 1.090584,4.099943 2.726461,8.033985 4.860213,11.731042 l -5.666391,10.569681 c -0.687541,1.303451 -0.450458,2.915264 0.59271,3.958024 l 8.013147,8.01 c 1.043168,1.04276 2.655706,1.27975 3.935957,0.59248 l 10.573838,-5.66417 c 3.698503,2.13291 7.610381,3.76815 11.735636,4.85831 l 3.4613285,11.47043 c 0.426749,1.42194 1.730709,2.36991 3.200627,2.36991 h 11.332781 c 1.469919,0 2.773879,-0.97166 3.200629,-2.36991 l 3.4613275,-11.47043 c 4.101546,-1.09016 8.037133,-2.7254 11.735637,-4.85831 l 10.573835,5.66417 c 1.303959,0.68727 2.915951,0.45028 3.959111,-0.59248 l 8.01361,-8.01 c 1.04317,-1.04276 1.28025,-2.654573 0.59271,-3.958024 L 41.50145,24.042742 C 43.6352,20.369387 45.27108,16.435345 46.36167,12.3117 L 57.83614,8.8517305 c 1.42251,-0.42658 2.37084,-1.730029 2.37084,-3.199372 v -11.328335 c 0.0237,-1.469342 -0.94796,-2.772792 -2.34676,-3.199371 L 46.36167,-12.335317 c -1.09059,-4.099934 -2.72647,-8.033977 -4.86022,-11.731033 l 5.66593,-10.569681 c 0.68754,-1.30345 0.45045,-2.915262 -0.59271,-3.958024 l -8.01314,-8.010004 c -1.04318,-1.042762 -2.655622,-1.279749 -3.959582,-0.592481 l -10.526141,5.711385 c -3.698503,-2.132918 -7.610381,-3.768151 -11.735635,-4.858306 L 8.8783805,-57.837506 c -0.426749,-1.421939 -1.730709,-2.369905 -3.200628,-2.369905 z m 5.66638903,31.187869 c 16.00314147,0 29.01866147,13.010871 29.01866147,29.00773847 0,15.99685653 -13.01552,29.00773753 -29.01866147,29.00773753 -16.00314153,0 -29.01912253,-13.010881 -29.01912253,-29.00773753 0,-15.99686747 13.015981,-29.00773847 29.01912253,-29.00773847 z"
       id="path2190"
       inkscape:connector-curvature="0" />
    <path
       inkscape:connector-curvature="0"
       id="path816"
       d="m 58.735483,33.539511 c -1.358027,0.562513 -2.190888,1.959222 -2.050071,3.414334 l 1.200731,11.943706 c -3.394055,2.585839 -6.382383,5.593608 -8.983121,8.979523 L 36.966061,56.69068 c -1.467712,-0.135958 -2.853547,0.668943 -3.409194,2.053419 l -4.346742,10.4454 c -0.564718,1.362581 -0.167117,2.942003 0.966898,3.883123 l 9.29269,7.565835 c -0.556528,4.232186 -0.571458,8.470894 -9.79e-4,12.697984 l -9.299208,7.596899 c -1.150975,0.93848 -1.528313,2.50562 -0.96602,3.86311 l 4.335167,10.46602 c 0.562293,1.3575 1.959151,2.18974 3.414712,2.04856 l 11.947354,-1.20371 c 2.576548,3.3705 5.593394,6.37906 8.979527,8.97814 l -1.190221,11.93355 c -0.136397,1.46734 0.699456,2.86574 2.062265,3.42992 l 10.468477,4.33378 c 1.362808,0.56418 2.943291,0.16604 3.863082,-0.95885 l 7.601368,-9.27944 c 4.233201,0.55519 8.473084,0.56895 12.701509,-0.003 l 7.587394,9.2727 c 0.93842,1.15039 2.50589,1.5272 3.86392,0.96469 l 10.47012,-4.33687 c 1.35803,-0.56252 2.1909,-1.95922 2.05007,-3.41434 l -1.19169,-11.92189 c 3.37215,-2.57677 6.38238,-5.59362 8.98312,-8.97952 l 11.93653,1.18657 c 1.46771,0.13595 2.86631,-0.69988 3.43101,-2.06246 l 4.33832,-10.46695 c 0.56472,-1.36259 0.16693,-2.94245 -0.96708,-3.88357 l -9.34536,-7.569562 c 0.56559,-4.210289 0.57146,-8.470894 9.8e-4,-12.697996 l 9.27696,-7.587684 c 1.15098,-0.938481 1.52831,-2.505621 0.96602,-3.863116 l -4.33517,-10.466018 c -0.54039,-1.366564 -1.9369,-2.198957 -3.39247,-2.057767 l -11.94734,1.20371 c -2.57655,-3.370494 -5.5934,-6.379052 -8.97953,-8.978135 l 1.18979,-11.93337 c 0.1364,-1.467341 -0.69946,-2.86573 -2.06226,-3.429917 l -10.46847,-4.333323 c -1.36282,-0.564178 -2.94322,-0.166072 -3.88491,0.967885 l -7.539234,9.304811 c -4.233206,-0.555202 -8.473087,-0.56895 -12.701509,0.0025 L 73.069099,30.1675 c -0.938417,-1.150391 -2.50589,-1.527193 -3.863919,-0.964679 z m 17.170143,26.6454 c 14.784974,-6.124136 31.788794,0.915515 37.910534,15.694693 6.12173,14.779169 -0.924,31.780476 -15.708973,37.904616 C 83.322211,119.90836 66.317965,112.86887 60.196233,98.089704 54.074497,83.310526 61.12065,66.309049 75.905626,60.184911 Z"
       clip-path="url(#clipPath820)"
       style="display:inline;fill:#e6e6e6;fill-opacity:1;stroke:#000000;stroke-width:7.58518505;stroke-miterlimit:4;stroke-dasharray:none;stroke-opacity:1" />
  </g>
</svg>
