<?xml version="1.0" encoding="UTF-8" standalone="no"?>
<!-- Created with Inkscape (http://www.inkscape.org/) -->

<svg
   xmlns:dc="http://purl.org/dc/elements/1.1/"
   xmlns:cc="http://creativecommons.org/ns#"
   xmlns:rdf="http://www.w3.org/1999/02/22-rdf-syntax-ns#"
   xmlns:svg="http://www.w3.org/2000/svg"
   xmlns="http://www.w3.org/2000/svg"
   xmlns:sodipodi="http://sodipodi.sourceforge.net/DTD/sodipodi-0.dtd"
   xmlns:inkscape="http://www.inkscape.org/namespaces/inkscape"
   width="128px"
   height="128px"
   viewBox="0 0 128 128"
   version="1.1"
   id="SVGRoot"
   sodipodi:docname="range-startup.svg"
   inkscape:version="0.92.3 (2405546, 2018-03-11)">
  <sodipodi:namedview
     id="base"
     pagecolor="#ffffff"
     bordercolor="#666666"
     borderopacity="1.0"
     inkscape:pageopacity="0.0"
     inkscape:pageshadow="2"
     inkscape:zoom="2.8284271"
     inkscape:cx="63.741019"
     inkscape:cy="31.633984"
     inkscape:document-units="px"
     inkscape:current-layer="layer1"
     showgrid="false"
     inkscape:window-width="1225"
     inkscape:window-height="851"
     inkscape:window-x="1197"
     inkscape:window-y="284"
     inkscape:window-maximized="0"
     inkscape:grid-bbox="true" />
  <defs
     id="defs879" />
  <metadata
     id="metadata882">
    <rdf:RDF>
      <cc:Work
         rdf:about="">
        <dc:format>image/svg+xml</dc:format>
        <dc:type
           rdf:resource="http://purl.org/dc/dcmitype/StillImage" />
        <dc:title></dc:title>
      </cc:Work>
    </rdf:RDF>
  </metadata>
  <g
     id="layer1"
     inkscape:groupmode="layer"
     inkscape:label="Vrstva 1">
    <path
       inkscape:connector-curvature="0"
       d="m 37.37154,19.422849 a 8.4266411,7.8540363 0 0 0 -2.933616,1.051663 C 25.5609,25.261688 18.162018,31.985877 12.999771,40.24559 c -16.3441633,26.151099 -6.8452426,60.0647 21.212484,75.29823 28.057727,15.23361 64.443726,6.38002 80.787975,-19.771079 16.34416,-26.15102 6.84524,-60.064622 -21.212485,-75.298229 A 8.4954579,7.9181765 0 1 0 85.212484,34.145975 C 105.40069,45.106891 112.09206,68.963852 100.33198,87.780243 88.571989,106.59663 62.975809,112.83327 42.787516,101.87236 22.685935,90.958475 15.891,67.227309 27.442348,48.448452 l 0.225837,-0.210443 c 3.687475,-5.900086 9.0041,-10.882863 15.345169,-14.302398 a 8.4266411,7.8540363 0 0 0 -5.641646,-14.51284 z"
       id="path3869-2"
       style="color:#000000;font-style:normal;font-variant:normal;font-weight:normal;font-stretch:normal;font-size:medium;line-height:normal;font-family:Sans;-inkscape-font-specification:Sans;text-indent:0;text-align:start;text-decoration:none;text-decoration-line:none;letter-spacing:normal;word-spacing:normal;text-transform:none;writing-mode:lr-tb;direction:ltr;baseline-shift:baseline;text-anchor:start;display:inline;overflow:visible;visibility:visible;fill:#0000ff;fill-opacity:1;stroke:#000000;stroke-width:0;stroke-miterlimit:4;stroke-dasharray:none;stroke-opacity:1;marker:none;enable-background:accumulate" />
    <path
       inkscape:connector-curvature="0"
       d="m 62.156642,5.190494 a 8.427624,7.8531192 0 0 0 -6.583423,7.852334 v 39.26167 a 8.427624,7.8531192 0 1 0 16.853562,0 V 13.042828 A 8.427624,7.8531192 0 0 0 62.156642,5.190494 Z"
       id="path4710"
       style="color:#000000;font-style:normal;font-variant:normal;font-weight:normal;font-stretch:normal;font-size:medium;line-height:normal;font-family:Sans;-inkscape-font-specification:Sans;text-indent:0;text-align:start;text-decoration:none;text-decoration-line:none;letter-spacing:normal;word-spacing:normal;text-transform:none;writing-mode:lr-tb;direction:ltr;baseline-shift:baseline;text-anchor:start;display:inline;overflow:visible;visibility:visible;fill:#0000ff;fill-opacity:1;stroke:#000000;stroke-width:0;stroke-miterlimit:4;stroke-dasharray:none;stroke-opacity:1;marker:none;enable-background:accumulate" />
  </g>
</svg>
