<?xml version="1.0" encoding="UTF-8" standalone="no"?>
<!-- Created with Inkscape (http://www.inkscape.org/) -->

<svg
   xmlns:dc="http://purl.org/dc/elements/1.1/"
   xmlns:cc="http://creativecommons.org/ns#"
   xmlns:rdf="http://www.w3.org/1999/02/22-rdf-syntax-ns#"
   xmlns:svg="http://www.w3.org/2000/svg"
   xmlns="http://www.w3.org/2000/svg"
   xmlns:xlink="http://www.w3.org/1999/xlink"
   xmlns:sodipodi="http://sodipodi.sourceforge.net/DTD/sodipodi-0.dtd"
   xmlns:inkscape="http://www.inkscape.org/namespaces/inkscape"
   width="128px"
   height="128px"
   viewBox="0 0 128 128"
   version="1.1"
   id="SVGRoot"
   inkscape:version="0.92.3 (2405546, 2018-03-11)"
   sodipodi:docname="range-problem_matrix_solver.svg">
  <sodipodi:namedview
     id="base"
     pagecolor="#ffffff"
     bordercolor="#666666"
     borderopacity="1.0"
     inkscape:pageopacity="0.0"
     inkscape:pageshadow="2"
     inkscape:zoom="5.6568542"
     inkscape:cx="20.99144"
     inkscape:cy="63.294079"
     inkscape:document-units="px"
     inkscape:current-layer="layer3"
     showgrid="false"
     inkscape:window-width="1870"
     inkscape:window-height="1136"
     inkscape:window-x="617"
     inkscape:window-y="205"
     inkscape:window-maximized="0"
     inkscape:grid-bbox="true" />
  <defs
     id="defs815">
    <linearGradient
       inkscape:collect="always"
       id="linearGradient1382">
      <stop
         style="stop-color:#ff0000;stop-opacity:1"
         offset="0"
         id="stop1378" />
      <stop
         id="stop1398"
         offset="0.25"
         style="stop-color:#ffff00;stop-opacity:1" />
      <stop
         id="stop1396"
         offset="0.5"
         style="stop-color:#00ff00;stop-opacity:1" />
      <stop
         style="stop-color:#00ffff;stop-opacity:1"
         offset="0.75"
         id="stop1400" />
      <stop
         style="stop-color:#0000ff;stop-opacity:1"
         offset="1"
         id="stop1380" />
    </linearGradient>
    <linearGradient
       inkscape:collect="always"
       xlink:href="#linearGradient1382"
       id="linearGradient1384"
       x1="67.314003"
       y1="8.2072668"
       x2="68.284988"
       y2="117.80882"
       gradientUnits="userSpaceOnUse" />
    <radialGradient
       inkscape:collect="always"
       xlink:href="#linearGradient1449"
       id="radialGradient1451"
       cx="51.978088"
       cy="54.190548"
       fx="51.978088"
       fy="54.190548"
       r="57.790104"
       gradientTransform="matrix(0.47386158,0.09788621,-0.20572981,0.99592654,36.553485,-5.364256)"
       gradientUnits="userSpaceOnUse" />
    <linearGradient
       inkscape:collect="always"
       id="linearGradient1449">
      <stop
         style="stop-color:#f2f2f2;stop-opacity:1"
         offset="0"
         id="stop1445" />
      <stop
         style="stop-color:#ffffff;stop-opacity:0.03921569"
         offset="1"
         id="stop1447" />
    </linearGradient>
    <linearGradient
       id="linearGradient15218">
      <stop
         style="stop-color:#f8f8f7;stop-opacity:1;"
         offset="0"
         id="stop15220" />
      <stop
         id="stop849"
         offset="0.25"
         style="stop-color:#e6e6e6;stop-opacity:1" />
      <stop
         id="stop2269"
         offset="0.5"
         style="stop-color:#000000;stop-opacity:1" />
      <stop
         style="stop-color:#e6e6e6;stop-opacity:1"
         offset="0.75"
         id="stop845" />
      <stop
         style="stop-color:#e6e6e6;stop-opacity:1"
         offset="1"
         id="stop15222" />
    </linearGradient>
    <linearGradient
       inkscape:collect="always"
       xlink:href="#linearGradient15218"
       id="linearGradient843"
       x1="66"
       y1="121"
       x2="122.0001"
       y2="64.999901"
       gradientUnits="userSpaceOnUse" />
  </defs>
  <metadata
     id="metadata818">
    <rdf:RDF>
      <cc:Work
         rdf:about="">
        <dc:format>image/svg+xml</dc:format>
        <dc:type
           rdf:resource="http://purl.org/dc/dcmitype/StillImage" />
        <dc:title />
      </cc:Work>
    </rdf:RDF>
  </metadata>
  <g
     id="layer1"
     inkscape:groupmode="layer"
     inkscape:label="Problem"
     sodipodi:insensitive="true">
    <g
       id="g2872">
      <path
         style="display:inline;fill:url(#linearGradient1384);fill-opacity:1;stroke:#000000;stroke-width:0;stroke-linecap:round;stroke-linejoin:miter;stroke-miterlimit:4;stroke-dasharray:none;stroke-opacity:1"
         d="M 10,118 C 24.048278,40.557748 75.913132,-84.86252 118,118"
         id="path1441"
         inkscape:connector-curvature="0"
         sodipodi:nodetypes="cc" />
      <path
         style="display:inline;fill:url(#radialGradient1451);fill-opacity:1;stroke:#000000;stroke-width:3.77952766;stroke-linecap:round;stroke-linejoin:miter;stroke-miterlimit:4;stroke-dasharray:none;stroke-opacity:1"
         d="M 9.999996,118 C 24.04827,40.557749 75.91313,-84.862518 118,118"
         id="path1441-3"
         inkscape:connector-curvature="0"
         sodipodi:nodetypes="cc" />
    </g>
  </g>
  <g
     inkscape:groupmode="layer"
     id="layer2"
     inkscape:label="Emblem">
    <path
       style="display:inline;fill:#cccccc;fill-opacity:1;stroke:#000000;stroke-width:3.79146934;stroke-miterlimit:4;stroke-dasharray:none;stroke-opacity:1"
       clip-path="none"
       d="m 31.890905,1.8957253 c -0.8082,0 -1.52517,0.534259 -1.75982,1.30306 l -1.90316,6.319853 c -2.26822,0.5994077 -4.41911,1.4985187 -6.45269,2.6712767 l -5.81414,-3.1143667 c -0.71696,-0.37789 -1.59031,-0.260613 -2.16388,0.325763 L 9.3912847,13.792785 c -0.57357,0.573343 -0.70393,1.459324 -0.32589,2.176009 l 3.1285703,5.798627 c -1.17321,2.032778 -2.07268,4.182829 -2.6723203,6.450157 l -6.32233,1.902419 c -0.78215,0.234549 -1.30358,0.951234 -1.30358,1.759133 v 6.228739 c 0,0.807899 0.53447,1.524584 1.30358,1.759134 l 6.32233,1.902419 c 0.5996403,2.254303 1.4991103,4.417393 2.6723203,6.450173 l -3.1155903,5.81159 c -0.37803,0.71669 -0.24768,1.60292 0.3259,2.17627 l 4.4059303,4.40419 c 0.57356,0.57335 1.46021,0.70366 2.16413,0.32577 l 5.81388,-3.11436 c 2.03358,1.17275 4.18448,2.07186 6.4527,2.67127 l 1.90316,6.30687 c 0.23464,0.78184 0.95161,1.30307 1.75983,1.30307 h 6.23118 c 0.80822,0 1.52518,-0.53425 1.75982,-1.30307 l 1.90318,-6.30687 c 2.255165,-0.59941 4.419105,-1.49852 6.452675,-2.67127 l 5.81389,3.11436 c 0.71696,0.37789 1.60328,0.24758 2.17686,-0.32577 l 4.40618,-4.40419 c 0.57357,-0.57335 0.70393,-1.45958 0.32589,-2.17627 l -3.15454,-5.81159 c 1.17321,-2.01975 2.07268,-4.18284 2.67233,-6.450173 l 6.30909,-1.902419 c 0.78214,-0.23455 1.30357,-0.951235 1.30357,-1.759134 V 31.87913 c 0.013,-0.807899 -0.52122,-1.524584 -1.29033,-1.759133 l -6.32233,-1.902419 c -0.59965,-2.254296 -1.49912,-4.417379 -2.67233,-6.450157 l 3.11534,-5.811604 c 0.37803,-0.716685 0.24768,-1.602919 -0.3259,-2.176268 L 56.20256,9.3753513 C 55.62898,8.8020023 54.74241,8.6716993 54.02543,9.0495833 L 48.23777,12.189915 C 46.2042,11.017157 44.0533,10.118046 41.785095,9.5186383 l -1.90342,-6.319853 c -0.23465,-0.781833 -0.95161,-1.30306 -1.75983,-1.30306 z m 3.11561,17.1482467 c 8.799115,0 15.955525,7.15386 15.955525,15.94953 0,8.795673 -7.15641,15.949533 -15.955525,15.949533 -8.79913,0 -15.9558,-7.15386 -15.9558,-15.949533 0,-8.79567 7.15667,-15.94953 15.9558,-15.94953 z"
       id="path2190"
       inkscape:connector-curvature="0" />
  </g>
  <g
     inkscape:groupmode="layer"
     id="layer3"
     inkscape:label="Matrix">
    <rect
       style="opacity:1;fill:url(#linearGradient843);fill-opacity:1;stroke:#000000;stroke-width:4;stroke-linecap:round;stroke-linejoin:round;stroke-miterlimit:4;stroke-dasharray:none;stroke-dashoffset:11.33720303;stroke-opacity:1"
       id="rect960"
       width="56.000099"
       height="56.000099"
       x="66"
       y="64.999901" />
  </g>
</svg>
