<?xml version="1.0" encoding="UTF-8" standalone="no"?>
<!-- Created with Inkscape (http://www.inkscape.org/) -->

<svg
   xmlns:dc="http://purl.org/dc/elements/1.1/"
   xmlns:cc="http://creativecommons.org/ns#"
   xmlns:rdf="http://www.w3.org/1999/02/22-rdf-syntax-ns#"
   xmlns:svg="http://www.w3.org/2000/svg"
   xmlns="http://www.w3.org/2000/svg"
   xmlns:sodipodi="http://sodipodi.sourceforge.net/DTD/sodipodi-0.dtd"
   xmlns:inkscape="http://www.inkscape.org/namespaces/inkscape"
   width="128px"
   height="128px"
   viewBox="0 0 128 128"
   version="1.1"
   id="SVGRoot"
   inkscape:version="0.92.3 (2405546, 2018-03-11)"
   sodipodi:docname="range-application_settings.svg">
  <sodipodi:namedview
     id="base"
     pagecolor="#ffffff"
     bordercolor="#666666"
     borderopacity="1.0"
     inkscape:pageopacity="0.0"
     inkscape:pageshadow="2"
     inkscape:zoom="2"
     inkscape:cx="64"
     inkscape:cy="64"
     inkscape:document-units="px"
     inkscape:current-layer="layer1"
     showgrid="false"
     inkscape:window-width="2560"
     inkscape:window-height="1341"
     inkscape:window-x="0"
     inkscape:window-y="28"
     inkscape:window-maximized="1"
     inkscape:grid-bbox="true" />
  <defs
     id="defs2217" />
  <metadata
     id="metadata2220">
    <rdf:RDF>
      <cc:Work
         rdf:about="">
        <dc:format>image/svg+xml</dc:format>
        <dc:type
           rdf:resource="http://purl.org/dc/dcmitype/StillImage" />
        <dc:title></dc:title>
      </cc:Work>
    </rdf:RDF>
  </metadata>
  <g
     id="layer1"
     inkscape:groupmode="layer"
     inkscape:label="Emblem">
    <path
       style="display:inline;fill:#e6e6e6;fill-opacity:1;stroke:#000000;stroke-width:7.58518505;stroke-miterlimit:4;stroke-dasharray:none;stroke-opacity:1"
       clip-path="none"
       d="m 58.345435,3.7925925 c -1.469919,0 -2.773878,0.971667 -3.200629,2.369904 L 51.683479,17.656542 c -4.125256,1.090155 -8.037135,2.725388 -11.735637,4.858306 l -10.5743,-5.664162 c -1.30396,-0.687278 -2.892327,-0.473983 -3.935494,0.59247 L 17.4249,25.430021 c -1.043168,1.042752 -1.280251,2.654103 -0.592709,3.957553 l 5.690006,10.546079 c -2.133752,3.697056 -3.769629,7.607398 -4.860213,11.731033 L 6.1634284,55.124655 C 4.740927,55.551234 3.7925926,56.854684 3.7925926,58.324026 v 11.328335 c 0,1.469342 0.9720428,2.772792 2.3708358,3.199372 l 11.4985556,3.45997 c 1.090584,4.099943 2.726461,8.033985 4.860213,11.731042 l -5.666391,10.569681 c -0.687541,1.303451 -0.450458,2.915264 0.59271,3.958024 l 8.013147,8.01 c 1.043168,1.04276 2.655706,1.27975 3.935957,0.59248 l 10.573838,-5.66417 c 3.698503,2.13291 7.610381,3.76815 11.735636,4.85831 l 3.461329,11.47043 c 0.426749,1.42194 1.730709,2.36991 3.200627,2.36991 h 11.332781 c 1.469919,0 2.773879,-0.97166 3.200629,-2.36991 l 3.461327,-11.47043 c 4.101546,-1.09016 8.037133,-2.7254 11.735637,-4.85831 l 10.573835,5.66417 c 1.303959,0.68727 2.915951,0.45028 3.959111,-0.59248 l 8.01361,-8.01 c 1.04317,-1.04276 1.28025,-2.654573 0.59271,-3.958024 l -5.73724,-10.569681 c 2.13375,-3.673355 3.76963,-7.607397 4.86022,-11.731042 l 11.47447,-3.45997 c 1.42251,-0.42658 2.37084,-1.730029 2.37084,-3.199372 V 58.324026 c 0.0237,-1.469342 -0.94796,-2.772792 -2.34676,-3.199371 l -11.49855,-3.459969 c -1.09059,-4.099934 -2.72647,-8.033977 -4.86022,-11.731033 l 5.66593,-10.569681 c 0.68754,-1.30345 0.45045,-2.915262 -0.59271,-3.958024 l -8.01314,-8.010004 c -1.04318,-1.042762 -2.655622,-1.279749 -3.959582,-0.592481 L 88.075807,22.514848 C 84.377304,20.38193 80.465426,18.746697 76.340172,17.656542 L 72.878381,6.1624965 c -0.426749,-1.421939 -1.730709,-2.369904 -3.200628,-2.369904 z m 5.666389,31.1878685 c 16.003141,0 29.018661,13.010871 29.018661,29.007738 0,15.996857 -13.01552,29.007738 -29.018661,29.007738 -16.003142,0 -29.019123,-13.010881 -29.019123,-29.007738 0,-15.996867 13.015981,-29.007738 29.019123,-29.007738 z"
       id="path2190"
       inkscape:connector-curvature="0" />
  </g>
</svg>
