<?xml version="1.0" encoding="UTF-8" standalone="no"?>
<!-- Created with Inkscape (http://www.inkscape.org/) -->

<svg
   xmlns:dc="http://purl.org/dc/elements/1.1/"
   xmlns:cc="http://creativecommons.org/ns#"
   xmlns:rdf="http://www.w3.org/1999/02/22-rdf-syntax-ns#"
   xmlns:svg="http://www.w3.org/2000/svg"
   xmlns="http://www.w3.org/2000/svg"
   xmlns:sodipodi="http://sodipodi.sourceforge.net/DTD/sodipodi-0.dtd"
   xmlns:inkscape="http://www.inkscape.org/namespaces/inkscape"
   width="128px"
   height="128px"
   viewBox="0 0 128 128"
   version="1.1"
   id="SVGRoot"
   sodipodi:docname="range-help.svg"
   inkscape:version="0.92.3 (2405546, 2018-03-11)">
  <sodipodi:namedview
     id="base"
     pagecolor="#ffffff"
     bordercolor="#666666"
     borderopacity="1.0"
     inkscape:pageopacity="0.0"
     inkscape:pageshadow="2"
     inkscape:zoom="2.8284271"
     inkscape:cx="90.639415"
     inkscape:cy="26.450741"
     inkscape:document-units="px"
     inkscape:current-layer="layer1"
     showgrid="false"
     inkscape:window-width="1681"
     inkscape:window-height="1085"
     inkscape:window-x="511"
     inkscape:window-y="223"
     inkscape:window-maximized="0"
     inkscape:grid-bbox="true" />
  <defs
     id="defs815" />
  <metadata
     id="metadata818">
    <rdf:RDF>
      <cc:Work
         rdf:about="">
        <dc:format>image/svg+xml</dc:format>
        <dc:type
           rdf:resource="http://purl.org/dc/dcmitype/StillImage" />
      </cc:Work>
    </rdf:RDF>
  </metadata>
  <g
     id="layer1"
     inkscape:groupmode="layer"
     inkscape:label="Question">
    <g
       aria-label="?"
       transform="scale(1.0023526,0.99765293)"
       style="font-style:normal;font-variant:normal;font-weight:bold;font-stretch:normal;font-size:160.98008728px;line-height:0;font-family:Comfortaa;-inkscape-font-specification:'Comfortaa Bold';letter-spacing:0px;word-spacing:0px;fill:#000000;fill-opacity:1;stroke:none;stroke-width:1.67687583"
       id="text1376"
       inkscape:label="Question">
      <path
         transform="matrix(0.95650937,0,0,0.87728123,2.7901621,7.8630035)"
         style="display:inline;stroke-width:1.67687583"
         d="M 64.017578,-8.9433594 C 43.347596,-9.1877608 22.82096,4.4304288 18.369141,25.78125 c -0.691557,3.306072 -1.760682,7.906592 -1.394532,13.044922 0.364079,5.109245 3.080956,11.594656 9.169922,14.658203 11.285017,5.978979 26.140582,-2.493108 25.169922,-15.806641 a 6.9742729,6.9742729 0 0 0 -0.0039,-0.04297 c -0.512752,-6.461327 4.2952,-13.154729 10.531244,-13.320311 A 6.9742729,6.9742729 0 0 0 63.1875,24.146484 c 6.634213,-1.494102 14.208459,4.070221 13.527344,10.91211 a 6.9742729,6.9742729 0 0 0 -0.0293,0.923828 c 0.266738,7.993029 -6.808865,15.159131 -15.082031,21.80664 a 6.9742729,6.9742729 0 0 0 -0.492188,0.433594 C 51.846079,67.222615 44.827832,80.740637 47.400391,95.080078 a 6.9742729,6.9742729 0 0 0 0.138671,0.619141 c 0.679082,2.468361 1.893842,4.492071 3.404297,6.171871 -7.475032,6.59264 -9.97482,18.50779 -3.171875,27.22266 9.058539,13.06637 30.245556,9.88992 35.210938,-5.18164 3.121347,-8.25889 0.144524,-16.92564 -5.939453,-22.14258 1.688431,-1.893295 2.969033,-4.235833 3.554687,-7.083983 a 6.9742729,6.9742729 0 0 0 0.132813,-1.021485 c 0.394217,-7.159305 1.880173,-12.95388 6.18164,-15.457031 a 6.9742729,6.9742729 0 0 0 0.675782,-0.447265 C 100.08199,68.391551 111.03513,53.901903 110.70312,36.21875 111.82717,16.779403 98.991768,-1.5639372 80.130859,-6.8398438 74.811609,-8.4875312 69.345207,-9.0827038 64.017578,-8.9433594 Z M 63.291016,96.964844 c -0.0697,3.88e-4 -0.127824,0.03013 -0.197266,0.03125 -0.08393,0.0047 -0.15998,-0.02143 -0.244141,-0.01563 z"
         id="path1460"
         inkscape:connector-curvature="0" />
      <path
         transform="matrix(0.95650937,0,0,0.87728123,2.7901621,7.8630035)"
         style="display:inline;fill:#e6e6e6;stroke-width:1.67687583"
         d="m 64.179688,-2.7753906 c -0.07811,0.00213 -0.156245,0.00278 -0.234376,0.00195 C 46.032838,-2.9852342 28.193524,8.8867041 24.408203,27.041016 v 0.0039 c -0.71762,3.43067 -1.566369,7.313194 -1.279297,11.341797 0.235718,3.307905 2.164735,7.762426 5.789063,9.585937 0.03862,0.01978 0.07704,0.03996 0.115234,0.06055 7.172478,3.800092 16.745422,-1.331439 16.128906,-9.896484 -6.72e-4,-0.0046 -0.0013,-0.0091 -0.002,-0.01367 -0.779881,-9.82749 5.95488,-19.694921 16.515625,-19.976563 0.05223,-0.0014 0.10528,-0.0081 0.15625,-0.01953 5.409526,-1.218288 10.68171,0.379898 14.660157,3.486328 3.978446,3.10643 6.941528,8.228455 6.361328,14.056641 l 0.002,-0.0078 c -0.0035,0.03541 -0.0051,0.07186 -0.0039,0.107422 v 0.0078 c 0.196069,5.875352 -2.313133,11.058911 -5.603515,15.361328 -3.290382,4.302417 -7.468345,7.995124 -11.779297,11.458984 -0.0033,0.0026 -0.0065,0.0052 -0.0098,0.0078 -0.01713,0.01372 -0.03287,0.02789 -0.04883,0.04297 -8.167439,7.933584 -14.046664,19.585316 -11.9375,31.341796 0.0013,0.0059 0.0026,0.01172 0.0039,0.01758 0.0033,0.01867 0.0071,0.0363 0.01172,0.05469 1.72e-4,6.23e-4 -1.71e-4,0.0013 0,0.002 0.40876,1.484676 1.080522,2.611289 2.042969,3.681641 3.871802,3.752757 10.414229,7.066067 16.908202,-0.08203 1.037314,-1.163174 1.752524,-2.45677 2.115235,-4.220703 v -0.002 c 0.0079,-0.03822 0.01337,-0.07823 0.01562,-0.117187 v -0.002 c 0.215536,-3.912609 0.699471,-7.670718 1.982422,-11.226563 1.283168,-3.556443 3.583362,-7.083568 7.25586,-9.220703 l 0.0039,-0.002 c 0.02571,-0.01494 0.05032,-0.03113 0.07422,-0.04883 l 0.0039,-0.002 c 11.434424,-8.574584 20.927575,-21.415971 20.644585,-36.488131 -0.003,-0.156946 -6.5e-4,-0.313961 0.008,-0.470703 0.9547,-16.513897 -10.086892,-32.2895772 -26.07441,-36.7617185 -0.05491,-0.0155166 -0.109603,-0.0317942 -0.164062,-0.0488281 -4.579202,-1.4184505 -9.366644,-1.9525801 -14.125,-1.828125 z"
         id="path1471"
         inkscape:connector-curvature="0"
         sodipodi:nodetypes="ccccsccccccsccccscccccccccccccsccccccccc" />
      <ellipse
         style="opacity:1;fill:#e6e6e6;fill-opacity:1;stroke:#000000;stroke-width:0.37932184;stroke-linecap:round;stroke-linejoin:round;stroke-miterlimit:4;stroke-dasharray:none;stroke-dashoffset:11.33720303;stroke-opacity:1"
         id="path1476"
         cx="63.986607"
         cy="111.18392"
         rx="14.276306"
         ry="12.840922" />
    </g>
  </g>
</svg>
